<mxfile host="app.diagrams.net" modified="2023-05-27T13:31:05.555Z" agent="Mozilla/5.0 (Windows NT 10.0; Win64; x64) AppleWebKit/537.36 (KHTML, like Gecko) Chrome/113.0.0.0 Safari/537.36 Edg/113.0.1774.50" etag="gn-XrIpL1uK2GSzzo3A2" version="21.3.2" type="device">
  <diagram id="R2lEEEUBdFMjLlhIrx00" name="Page-1">
    <mxGraphModel dx="1058" dy="786" grid="1" gridSize="10" guides="1" tooltips="1" connect="1" arrows="1" fold="1" page="1" pageScale="1" pageWidth="850" pageHeight="1100" math="0" shadow="0" extFonts="Permanent Marker^https://fonts.googleapis.com/css?family=Permanent+Marker">
      <root>
        <mxCell id="0" />
        <mxCell id="1" parent="0" />
        <mxCell id="9riuW5s3sE9LM6lIKMUX-32" value="Чувства" style="shape=table;startSize=30;container=1;collapsible=1;childLayout=tableLayout;fixedRows=1;rowLines=0;fontStyle=1;align=center;resizeLast=1;rounded=0;" parent="1" vertex="1">
          <mxGeometry x="580" y="40" width="180" height="90" as="geometry" />
        </mxCell>
        <mxCell id="9riuW5s3sE9LM6lIKMUX-33" value="" style="shape=tableRow;horizontal=0;startSize=0;swimlaneHead=0;swimlaneBody=0;fillColor=none;collapsible=0;dropTarget=0;points=[[0,0.5],[1,0.5]];portConstraint=eastwest;top=0;left=0;right=0;bottom=1;rounded=0;" parent="9riuW5s3sE9LM6lIKMUX-32" vertex="1">
          <mxGeometry y="30" width="180" height="30" as="geometry" />
        </mxCell>
        <mxCell id="9riuW5s3sE9LM6lIKMUX-34" value="PK" style="shape=partialRectangle;connectable=0;fillColor=none;top=0;left=0;bottom=0;right=0;fontStyle=1;overflow=hidden;rounded=0;" parent="9riuW5s3sE9LM6lIKMUX-33" vertex="1">
          <mxGeometry width="30" height="30" as="geometry">
            <mxRectangle width="30" height="30" as="alternateBounds" />
          </mxGeometry>
        </mxCell>
        <mxCell id="9riuW5s3sE9LM6lIKMUX-35" value="id int" style="shape=partialRectangle;connectable=0;fillColor=none;top=0;left=0;bottom=0;right=0;align=left;spacingLeft=6;fontStyle=5;overflow=hidden;rounded=0;" parent="9riuW5s3sE9LM6lIKMUX-33" vertex="1">
          <mxGeometry x="30" width="150" height="30" as="geometry">
            <mxRectangle width="150" height="30" as="alternateBounds" />
          </mxGeometry>
        </mxCell>
        <mxCell id="9riuW5s3sE9LM6lIKMUX-36" value="" style="shape=tableRow;horizontal=0;startSize=0;swimlaneHead=0;swimlaneBody=0;fillColor=none;collapsible=0;dropTarget=0;points=[[0,0.5],[1,0.5]];portConstraint=eastwest;top=0;left=0;right=0;bottom=0;rounded=0;" parent="9riuW5s3sE9LM6lIKMUX-32" vertex="1">
          <mxGeometry y="60" width="180" height="30" as="geometry" />
        </mxCell>
        <mxCell id="9riuW5s3sE9LM6lIKMUX-37" value="" style="shape=partialRectangle;connectable=0;fillColor=none;top=0;left=0;bottom=0;right=0;editable=1;overflow=hidden;rounded=0;" parent="9riuW5s3sE9LM6lIKMUX-36" vertex="1">
          <mxGeometry width="30" height="30" as="geometry">
            <mxRectangle width="30" height="30" as="alternateBounds" />
          </mxGeometry>
        </mxCell>
        <mxCell id="9riuW5s3sE9LM6lIKMUX-38" value="Название text" style="shape=partialRectangle;connectable=0;fillColor=none;top=0;left=0;bottom=0;right=0;align=left;spacingLeft=6;overflow=hidden;rounded=0;" parent="9riuW5s3sE9LM6lIKMUX-36" vertex="1">
          <mxGeometry x="30" width="150" height="30" as="geometry">
            <mxRectangle width="150" height="30" as="alternateBounds" />
          </mxGeometry>
        </mxCell>
        <mxCell id="9riuW5s3sE9LM6lIKMUX-39" value="Места" style="shape=table;startSize=30;container=1;collapsible=1;childLayout=tableLayout;fixedRows=1;rowLines=0;fontStyle=1;align=center;resizeLast=1;rounded=0;" parent="1" vertex="1">
          <mxGeometry x="245" y="530" width="180" height="90" as="geometry" />
        </mxCell>
        <mxCell id="9riuW5s3sE9LM6lIKMUX-40" value="" style="shape=tableRow;horizontal=0;startSize=0;swimlaneHead=0;swimlaneBody=0;fillColor=none;collapsible=0;dropTarget=0;points=[[0,0.5],[1,0.5]];portConstraint=eastwest;top=0;left=0;right=0;bottom=1;rounded=0;" parent="9riuW5s3sE9LM6lIKMUX-39" vertex="1">
          <mxGeometry y="30" width="180" height="30" as="geometry" />
        </mxCell>
        <mxCell id="9riuW5s3sE9LM6lIKMUX-41" value="PK" style="shape=partialRectangle;connectable=0;fillColor=none;top=0;left=0;bottom=0;right=0;fontStyle=1;overflow=hidden;rounded=0;" parent="9riuW5s3sE9LM6lIKMUX-40" vertex="1">
          <mxGeometry width="35" height="30" as="geometry">
            <mxRectangle width="35" height="30" as="alternateBounds" />
          </mxGeometry>
        </mxCell>
        <mxCell id="9riuW5s3sE9LM6lIKMUX-42" value="id int" style="shape=partialRectangle;connectable=0;fillColor=none;top=0;left=0;bottom=0;right=0;align=left;spacingLeft=6;fontStyle=5;overflow=hidden;rounded=0;" parent="9riuW5s3sE9LM6lIKMUX-40" vertex="1">
          <mxGeometry x="35" width="145" height="30" as="geometry">
            <mxRectangle width="145" height="30" as="alternateBounds" />
          </mxGeometry>
        </mxCell>
        <mxCell id="9riuW5s3sE9LM6lIKMUX-43" value="" style="shape=tableRow;horizontal=0;startSize=0;swimlaneHead=0;swimlaneBody=0;fillColor=none;collapsible=0;dropTarget=0;points=[[0,0.5],[1,0.5]];portConstraint=eastwest;top=0;left=0;right=0;bottom=0;rounded=0;" parent="9riuW5s3sE9LM6lIKMUX-39" vertex="1">
          <mxGeometry y="60" width="180" height="30" as="geometry" />
        </mxCell>
        <mxCell id="9riuW5s3sE9LM6lIKMUX-44" value="" style="shape=partialRectangle;connectable=0;fillColor=none;top=0;left=0;bottom=0;right=0;editable=1;overflow=hidden;rounded=0;" parent="9riuW5s3sE9LM6lIKMUX-43" vertex="1">
          <mxGeometry width="35" height="30" as="geometry">
            <mxRectangle width="35" height="30" as="alternateBounds" />
          </mxGeometry>
        </mxCell>
        <mxCell id="9riuW5s3sE9LM6lIKMUX-45" value="Название text" style="shape=partialRectangle;connectable=0;fillColor=none;top=0;left=0;bottom=0;right=0;align=left;spacingLeft=6;overflow=hidden;rounded=0;" parent="9riuW5s3sE9LM6lIKMUX-43" vertex="1">
          <mxGeometry x="35" width="145" height="30" as="geometry">
            <mxRectangle width="145" height="30" as="alternateBounds" />
          </mxGeometry>
        </mxCell>
        <mxCell id="9riuW5s3sE9LM6lIKMUX-46" value="Персонажи" style="shape=table;startSize=30;container=1;collapsible=1;childLayout=tableLayout;fixedRows=1;rowLines=0;fontStyle=1;align=center;resizeLast=1;rounded=0;" parent="1" vertex="1">
          <mxGeometry x="20" y="230" width="180" height="120" as="geometry" />
        </mxCell>
        <mxCell id="9riuW5s3sE9LM6lIKMUX-47" value="" style="shape=tableRow;horizontal=0;startSize=0;swimlaneHead=0;swimlaneBody=0;fillColor=none;collapsible=0;dropTarget=0;points=[[0,0.5],[1,0.5]];portConstraint=eastwest;top=0;left=0;right=0;bottom=1;rounded=0;" parent="9riuW5s3sE9LM6lIKMUX-46" vertex="1">
          <mxGeometry y="30" width="180" height="30" as="geometry" />
        </mxCell>
        <mxCell id="9riuW5s3sE9LM6lIKMUX-48" value="PK" style="shape=partialRectangle;connectable=0;fillColor=none;top=0;left=0;bottom=0;right=0;fontStyle=1;overflow=hidden;rounded=0;" parent="9riuW5s3sE9LM6lIKMUX-47" vertex="1">
          <mxGeometry width="30" height="30" as="geometry">
            <mxRectangle width="30" height="30" as="alternateBounds" />
          </mxGeometry>
        </mxCell>
        <mxCell id="9riuW5s3sE9LM6lIKMUX-49" value="id int" style="shape=partialRectangle;connectable=0;fillColor=none;top=0;left=0;bottom=0;right=0;align=left;spacingLeft=6;fontStyle=5;overflow=hidden;rounded=0;" parent="9riuW5s3sE9LM6lIKMUX-47" vertex="1">
          <mxGeometry x="30" width="150" height="30" as="geometry">
            <mxRectangle width="150" height="30" as="alternateBounds" />
          </mxGeometry>
        </mxCell>
        <mxCell id="twK7g0DcGGdwUsfwsD0f-16" value="" style="shape=tableRow;horizontal=0;startSize=0;swimlaneHead=0;swimlaneBody=0;fillColor=none;collapsible=0;dropTarget=0;points=[[0,0.5],[1,0.5]];portConstraint=eastwest;top=0;left=0;right=0;bottom=0;fontSize=16;rounded=0;" parent="9riuW5s3sE9LM6lIKMUX-46" vertex="1">
          <mxGeometry y="60" width="180" height="30" as="geometry" />
        </mxCell>
        <mxCell id="twK7g0DcGGdwUsfwsD0f-17" value="&lt;font style=&quot;font-size: 12px;&quot;&gt;FK&lt;/font&gt;" style="shape=partialRectangle;connectable=0;fillColor=none;top=0;left=0;bottom=0;right=0;fontStyle=0;overflow=hidden;whiteSpace=wrap;html=1;fontSize=16;rounded=0;" parent="twK7g0DcGGdwUsfwsD0f-16" vertex="1">
          <mxGeometry width="30" height="30" as="geometry">
            <mxRectangle width="30" height="30" as="alternateBounds" />
          </mxGeometry>
        </mxCell>
        <mxCell id="twK7g0DcGGdwUsfwsD0f-18" value="&lt;font style=&quot;font-size: 12px;&quot;&gt;IDМеста int not null&lt;/font&gt;" style="shape=partialRectangle;connectable=0;fillColor=none;top=0;left=0;bottom=0;right=0;align=left;spacingLeft=6;fontStyle=0;overflow=hidden;whiteSpace=wrap;html=1;fontSize=16;rounded=0;" parent="twK7g0DcGGdwUsfwsD0f-16" vertex="1">
          <mxGeometry x="30" width="150" height="30" as="geometry">
            <mxRectangle width="150" height="30" as="alternateBounds" />
          </mxGeometry>
        </mxCell>
        <mxCell id="9riuW5s3sE9LM6lIKMUX-50" value="" style="shape=tableRow;horizontal=0;startSize=0;swimlaneHead=0;swimlaneBody=0;fillColor=none;collapsible=0;dropTarget=0;points=[[0,0.5],[1,0.5]];portConstraint=eastwest;top=0;left=0;right=0;bottom=0;rounded=0;" parent="9riuW5s3sE9LM6lIKMUX-46" vertex="1">
          <mxGeometry y="90" width="180" height="30" as="geometry" />
        </mxCell>
        <mxCell id="9riuW5s3sE9LM6lIKMUX-51" value="" style="shape=partialRectangle;connectable=0;fillColor=none;top=0;left=0;bottom=0;right=0;editable=1;overflow=hidden;rounded=0;" parent="9riuW5s3sE9LM6lIKMUX-50" vertex="1">
          <mxGeometry width="30" height="30" as="geometry">
            <mxRectangle width="30" height="30" as="alternateBounds" />
          </mxGeometry>
        </mxCell>
        <mxCell id="9riuW5s3sE9LM6lIKMUX-52" value="Имя text" style="shape=partialRectangle;connectable=0;fillColor=none;top=0;left=0;bottom=0;right=0;align=left;spacingLeft=6;overflow=hidden;rounded=0;" parent="9riuW5s3sE9LM6lIKMUX-50" vertex="1">
          <mxGeometry x="30" width="150" height="30" as="geometry">
            <mxRectangle width="150" height="30" as="alternateBounds" />
          </mxGeometry>
        </mxCell>
        <mxCell id="6CpcxT5ZGMCKmVeEH0Hq-4" value="События" style="shape=table;startSize=30;container=1;collapsible=1;childLayout=tableLayout;fixedRows=1;rowLines=0;fontStyle=1;align=center;resizeLast=1;rounded=0;" parent="1" vertex="1">
          <mxGeometry x="690" y="210" width="180" height="90" as="geometry">
            <mxRectangle x="690" y="210" width="90" height="30" as="alternateBounds" />
          </mxGeometry>
        </mxCell>
        <mxCell id="6CpcxT5ZGMCKmVeEH0Hq-5" value="" style="shape=tableRow;horizontal=0;startSize=0;swimlaneHead=0;swimlaneBody=0;fillColor=none;collapsible=0;dropTarget=0;points=[[0,0.5],[1,0.5]];portConstraint=eastwest;top=0;left=0;right=0;bottom=1;rounded=0;" parent="6CpcxT5ZGMCKmVeEH0Hq-4" vertex="1">
          <mxGeometry y="30" width="180" height="30" as="geometry" />
        </mxCell>
        <mxCell id="6CpcxT5ZGMCKmVeEH0Hq-6" value="PK" style="shape=partialRectangle;connectable=0;fillColor=none;top=0;left=0;bottom=0;right=0;fontStyle=1;overflow=hidden;rounded=0;" parent="6CpcxT5ZGMCKmVeEH0Hq-5" vertex="1">
          <mxGeometry width="30" height="30" as="geometry">
            <mxRectangle width="30" height="30" as="alternateBounds" />
          </mxGeometry>
        </mxCell>
        <mxCell id="6CpcxT5ZGMCKmVeEH0Hq-7" value="id int" style="shape=partialRectangle;connectable=0;fillColor=none;top=0;left=0;bottom=0;right=0;align=left;spacingLeft=6;fontStyle=5;overflow=hidden;rounded=0;" parent="6CpcxT5ZGMCKmVeEH0Hq-5" vertex="1">
          <mxGeometry x="30" width="150" height="30" as="geometry">
            <mxRectangle width="150" height="30" as="alternateBounds" />
          </mxGeometry>
        </mxCell>
        <mxCell id="6CpcxT5ZGMCKmVeEH0Hq-8" value="" style="shape=tableRow;horizontal=0;startSize=0;swimlaneHead=0;swimlaneBody=0;fillColor=none;collapsible=0;dropTarget=0;points=[[0,0.5],[1,0.5]];portConstraint=eastwest;top=0;left=0;right=0;bottom=0;rounded=0;" parent="6CpcxT5ZGMCKmVeEH0Hq-4" vertex="1">
          <mxGeometry y="60" width="180" height="30" as="geometry" />
        </mxCell>
        <mxCell id="6CpcxT5ZGMCKmVeEH0Hq-9" value="" style="shape=partialRectangle;connectable=0;fillColor=none;top=0;left=0;bottom=0;right=0;editable=1;overflow=hidden;rounded=0;" parent="6CpcxT5ZGMCKmVeEH0Hq-8" vertex="1">
          <mxGeometry width="30" height="30" as="geometry">
            <mxRectangle width="30" height="30" as="alternateBounds" />
          </mxGeometry>
        </mxCell>
        <mxCell id="6CpcxT5ZGMCKmVeEH0Hq-10" value="Описание text" style="shape=partialRectangle;connectable=0;fillColor=none;top=0;left=0;bottom=0;right=0;align=left;spacingLeft=6;overflow=hidden;rounded=0;" parent="6CpcxT5ZGMCKmVeEH0Hq-8" vertex="1">
          <mxGeometry x="30" width="150" height="30" as="geometry">
            <mxRectangle width="150" height="30" as="alternateBounds" />
          </mxGeometry>
        </mxCell>
        <mxCell id="6CpcxT5ZGMCKmVeEH0Hq-21" value="Местонахождение событий" style="shape=table;startSize=30;container=1;collapsible=1;childLayout=tableLayout;fixedRows=1;rowLines=0;fontStyle=1;align=center;resizeLast=1;rounded=0;" parent="1" vertex="1">
          <mxGeometry x="501" y="500" width="180" height="90" as="geometry" />
        </mxCell>
        <mxCell id="zgnpCIzNPo0XVpiPloeI-18" value="" style="shape=tableRow;horizontal=0;startSize=0;swimlaneHead=0;swimlaneBody=0;fillColor=none;collapsible=0;dropTarget=0;points=[[0,0.5],[1,0.5]];portConstraint=eastwest;top=0;left=0;right=0;bottom=0;rounded=0;" parent="6CpcxT5ZGMCKmVeEH0Hq-21" vertex="1">
          <mxGeometry y="30" width="180" height="30" as="geometry" />
        </mxCell>
        <mxCell id="zgnpCIzNPo0XVpiPloeI-19" value="PK" style="shape=partialRectangle;connectable=0;fillColor=none;top=0;left=0;bottom=0;right=0;fontStyle=1;overflow=hidden;whiteSpace=wrap;html=1;rounded=0;" parent="zgnpCIzNPo0XVpiPloeI-18" vertex="1">
          <mxGeometry width="30" height="30" as="geometry">
            <mxRectangle width="30" height="30" as="alternateBounds" />
          </mxGeometry>
        </mxCell>
        <mxCell id="zgnpCIzNPo0XVpiPloeI-20" value="IDСобытия int" style="shape=partialRectangle;connectable=0;fillColor=none;top=0;left=0;bottom=0;right=0;align=left;spacingLeft=6;fontStyle=1;overflow=hidden;whiteSpace=wrap;html=1;rounded=0;" parent="zgnpCIzNPo0XVpiPloeI-18" vertex="1">
          <mxGeometry x="30" width="150" height="30" as="geometry">
            <mxRectangle width="150" height="30" as="alternateBounds" />
          </mxGeometry>
        </mxCell>
        <mxCell id="zgnpCIzNPo0XVpiPloeI-15" value="" style="shape=tableRow;horizontal=0;startSize=0;swimlaneHead=0;swimlaneBody=0;fillColor=none;collapsible=0;dropTarget=0;points=[[0,0.5],[1,0.5]];portConstraint=eastwest;top=0;left=0;right=0;bottom=0;rounded=0;" parent="6CpcxT5ZGMCKmVeEH0Hq-21" vertex="1">
          <mxGeometry y="60" width="180" height="30" as="geometry" />
        </mxCell>
        <mxCell id="zgnpCIzNPo0XVpiPloeI-16" value="PK" style="shape=partialRectangle;connectable=0;fillColor=none;top=0;left=0;bottom=0;right=0;fontStyle=1;overflow=hidden;whiteSpace=wrap;html=1;rounded=0;" parent="zgnpCIzNPo0XVpiPloeI-15" vertex="1">
          <mxGeometry width="30" height="30" as="geometry">
            <mxRectangle width="30" height="30" as="alternateBounds" />
          </mxGeometry>
        </mxCell>
        <mxCell id="zgnpCIzNPo0XVpiPloeI-17" value="IDМеста int" style="shape=partialRectangle;connectable=0;fillColor=none;top=0;left=0;bottom=0;right=0;align=left;spacingLeft=6;fontStyle=1;overflow=hidden;whiteSpace=wrap;html=1;rounded=0;" parent="zgnpCIzNPo0XVpiPloeI-15" vertex="1">
          <mxGeometry x="30" width="150" height="30" as="geometry">
            <mxRectangle width="150" height="30" as="alternateBounds" />
          </mxGeometry>
        </mxCell>
        <mxCell id="NNVE3aY_QvxbynEaEJ5c-1" value="" style="edgeStyle=entityRelationEdgeStyle;fontSize=12;html=1;endArrow=ERzeroToMany;startArrow=ERmandOne;rounded=0;entryX=-0.009;entryY=0.18;entryDx=0;entryDy=0;exitX=1;exitY=0.283;exitDx=0;exitDy=0;exitPerimeter=0;entryPerimeter=0;" parent="1" source="9riuW5s3sE9LM6lIKMUX-47" edge="1" target="qjkPXYkK9kPyk9O8j_sl-4">
          <mxGeometry width="100" height="100" relative="1" as="geometry">
            <mxPoint x="200" y="275" as="sourcePoint" />
            <mxPoint x="260" y="135" as="targetPoint" />
          </mxGeometry>
        </mxCell>
        <mxCell id="NNVE3aY_QvxbynEaEJ5c-2" value="" style="edgeStyle=entityRelationEdgeStyle;fontSize=12;html=1;endArrow=ERzeroToMany;startArrow=ERmandOne;rounded=0;exitX=0;exitY=0.5;exitDx=0;exitDy=0;entryX=1;entryY=0.5;entryDx=0;entryDy=0;" parent="1" source="9riuW5s3sE9LM6lIKMUX-33" target="oF8WVjWUHLZyJpBt1P3e-6" edge="1">
          <mxGeometry width="100" height="100" relative="1" as="geometry">
            <mxPoint x="410" y="340" as="sourcePoint" />
            <mxPoint x="443" y="195" as="targetPoint" />
          </mxGeometry>
        </mxCell>
        <mxCell id="NNVE3aY_QvxbynEaEJ5c-3" value="" style="edgeStyle=entityRelationEdgeStyle;fontSize=12;html=1;endArrow=ERzeroToMany;startArrow=ERmandOne;rounded=0;exitX=1;exitY=0.5;exitDx=0;exitDy=0;entryX=0;entryY=0.667;entryDx=0;entryDy=0;entryPerimeter=0;" parent="1" source="9riuW5s3sE9LM6lIKMUX-40" target="zgnpCIzNPo0XVpiPloeI-15" edge="1">
          <mxGeometry width="100" height="100" relative="1" as="geometry">
            <mxPoint x="380" y="370" as="sourcePoint" />
            <mxPoint x="510" y="495" as="targetPoint" />
          </mxGeometry>
        </mxCell>
        <mxCell id="zgnpCIzNPo0XVpiPloeI-1" value="" style="edgeStyle=entityRelationEdgeStyle;fontSize=12;html=1;endArrow=ERzeroToMany;startArrow=ERmandOne;rounded=0;exitX=0;exitY=0.5;exitDx=0;exitDy=0;" parent="1" source="6CpcxT5ZGMCKmVeEH0Hq-5" target="zgnpCIzNPo0XVpiPloeI-18" edge="1">
          <mxGeometry width="100" height="100" relative="1" as="geometry">
            <mxPoint x="440" y="350" as="sourcePoint" />
            <mxPoint x="690" y="495" as="targetPoint" />
          </mxGeometry>
        </mxCell>
        <mxCell id="zgnpCIzNPo0XVpiPloeI-2" value="Участники событий" style="shape=table;startSize=30;container=1;collapsible=1;childLayout=tableLayout;fixedRows=1;rowLines=0;fontStyle=1;align=center;resizeLast=1;html=1;rounded=0;" parent="1" vertex="1">
          <mxGeometry x="871" y="368" width="180" height="90" as="geometry" />
        </mxCell>
        <mxCell id="zgnpCIzNPo0XVpiPloeI-31" value="" style="shape=tableRow;horizontal=0;startSize=0;swimlaneHead=0;swimlaneBody=0;fillColor=none;collapsible=0;dropTarget=0;points=[[0,0.5],[1,0.5]];portConstraint=eastwest;top=0;left=0;right=0;bottom=0;rounded=0;" parent="zgnpCIzNPo0XVpiPloeI-2" vertex="1">
          <mxGeometry y="30" width="180" height="30" as="geometry" />
        </mxCell>
        <mxCell id="zgnpCIzNPo0XVpiPloeI-32" value="PK" style="shape=partialRectangle;connectable=0;fillColor=none;top=0;left=0;bottom=0;right=0;fontStyle=1;overflow=hidden;whiteSpace=wrap;html=1;rounded=0;" parent="zgnpCIzNPo0XVpiPloeI-31" vertex="1">
          <mxGeometry width="30" height="30" as="geometry">
            <mxRectangle width="30" height="30" as="alternateBounds" />
          </mxGeometry>
        </mxCell>
        <mxCell id="zgnpCIzNPo0XVpiPloeI-33" value="IDСобытия int" style="shape=partialRectangle;connectable=0;fillColor=none;top=0;left=0;bottom=0;right=0;align=left;spacingLeft=6;fontStyle=1;overflow=hidden;whiteSpace=wrap;html=1;rounded=0;" parent="zgnpCIzNPo0XVpiPloeI-31" vertex="1">
          <mxGeometry x="30" width="150" height="30" as="geometry">
            <mxRectangle width="150" height="30" as="alternateBounds" />
          </mxGeometry>
        </mxCell>
        <mxCell id="zgnpCIzNPo0XVpiPloeI-28" value="" style="shape=tableRow;horizontal=0;startSize=0;swimlaneHead=0;swimlaneBody=0;fillColor=none;collapsible=0;dropTarget=0;points=[[0,0.5],[1,0.5]];portConstraint=eastwest;top=0;left=0;right=0;bottom=0;rounded=0;" parent="zgnpCIzNPo0XVpiPloeI-2" vertex="1">
          <mxGeometry y="60" width="180" height="30" as="geometry" />
        </mxCell>
        <mxCell id="zgnpCIzNPo0XVpiPloeI-29" value="PK" style="shape=partialRectangle;connectable=0;fillColor=none;top=0;left=0;bottom=0;right=0;fontStyle=1;overflow=hidden;whiteSpace=wrap;html=1;rounded=0;" parent="zgnpCIzNPo0XVpiPloeI-28" vertex="1">
          <mxGeometry width="30" height="30" as="geometry">
            <mxRectangle width="30" height="30" as="alternateBounds" />
          </mxGeometry>
        </mxCell>
        <mxCell id="zgnpCIzNPo0XVpiPloeI-30" value="IDПерсонажа int" style="shape=partialRectangle;connectable=0;fillColor=none;top=0;left=0;bottom=0;right=0;align=left;spacingLeft=6;fontStyle=1;overflow=hidden;whiteSpace=wrap;html=1;rounded=0;" parent="zgnpCIzNPo0XVpiPloeI-28" vertex="1">
          <mxGeometry x="30" width="150" height="30" as="geometry">
            <mxRectangle width="150" height="30" as="alternateBounds" />
          </mxGeometry>
        </mxCell>
        <mxCell id="zgnpCIzNPo0XVpiPloeI-24" value="" style="edgeStyle=entityRelationEdgeStyle;fontSize=12;html=1;endArrow=ERzeroToMany;startArrow=ERmandOne;rounded=0;exitX=1.004;exitY=0.744;exitDx=0;exitDy=0;exitPerimeter=0;entryX=0;entryY=0.5;entryDx=0;entryDy=0;" parent="1" source="9riuW5s3sE9LM6lIKMUX-47" target="zgnpCIzNPo0XVpiPloeI-28" edge="1">
          <mxGeometry width="100" height="100" relative="1" as="geometry">
            <mxPoint x="203" y="280" as="sourcePoint" />
            <mxPoint x="910" y="385" as="targetPoint" />
          </mxGeometry>
        </mxCell>
        <mxCell id="zgnpCIzNPo0XVpiPloeI-26" value="" style="edgeStyle=entityRelationEdgeStyle;fontSize=12;html=1;endArrow=ERzeroToMany;startArrow=ERmandOne;rounded=0;exitX=1;exitY=0.5;exitDx=0;exitDy=0;entryX=0;entryY=0.5;entryDx=0;entryDy=0;" parent="1" source="6CpcxT5ZGMCKmVeEH0Hq-5" target="zgnpCIzNPo0XVpiPloeI-31" edge="1">
          <mxGeometry width="100" height="100" relative="1" as="geometry">
            <mxPoint x="490" y="310" as="sourcePoint" />
            <mxPoint x="919" y="370" as="targetPoint" />
          </mxGeometry>
        </mxCell>
        <mxCell id="qjkPXYkK9kPyk9O8j_sl-4" value="Чувства персонажей" style="shape=table;startSize=30;container=1;collapsible=1;childLayout=tableLayout;fixedRows=1;rowLines=0;fontStyle=1;align=center;resizeLast=1;rounded=0;" parent="1" vertex="1">
          <mxGeometry x="270" y="110" width="180" height="150" as="geometry" />
        </mxCell>
        <mxCell id="oF8WVjWUHLZyJpBt1P3e-12" value="" style="shape=tableRow;horizontal=0;startSize=0;swimlaneHead=0;swimlaneBody=0;fillColor=none;collapsible=0;dropTarget=0;points=[[0,0.5],[1,0.5]];portConstraint=eastwest;top=0;left=0;right=0;bottom=0;" vertex="1" parent="qjkPXYkK9kPyk9O8j_sl-4">
          <mxGeometry y="30" width="180" height="30" as="geometry" />
        </mxCell>
        <mxCell id="oF8WVjWUHLZyJpBt1P3e-13" value="PK" style="shape=partialRectangle;connectable=0;fillColor=none;top=0;left=0;bottom=0;right=0;editable=1;overflow=hidden;fontStyle=1" vertex="1" parent="oF8WVjWUHLZyJpBt1P3e-12">
          <mxGeometry width="37" height="30" as="geometry">
            <mxRectangle width="37" height="30" as="alternateBounds" />
          </mxGeometry>
        </mxCell>
        <mxCell id="oF8WVjWUHLZyJpBt1P3e-14" value="IDПерсонажа int" style="shape=partialRectangle;connectable=0;fillColor=none;top=0;left=0;bottom=0;right=0;align=left;spacingLeft=6;overflow=hidden;fontStyle=5;verticalAlign=middle;" vertex="1" parent="oF8WVjWUHLZyJpBt1P3e-12">
          <mxGeometry x="37" width="143" height="30" as="geometry">
            <mxRectangle width="143" height="30" as="alternateBounds" />
          </mxGeometry>
        </mxCell>
        <mxCell id="oF8WVjWUHLZyJpBt1P3e-6" value="" style="shape=tableRow;horizontal=0;startSize=0;swimlaneHead=0;swimlaneBody=0;fillColor=none;collapsible=0;dropTarget=0;points=[[0,0.5],[1,0.5]];portConstraint=eastwest;top=0;left=0;right=0;bottom=1;" vertex="1" parent="qjkPXYkK9kPyk9O8j_sl-4">
          <mxGeometry y="60" width="180" height="30" as="geometry" />
        </mxCell>
        <mxCell id="oF8WVjWUHLZyJpBt1P3e-7" value="PK" style="shape=partialRectangle;connectable=0;fillColor=none;top=0;left=0;bottom=0;right=0;fontStyle=1;overflow=hidden;whiteSpace=wrap;html=1;" vertex="1" parent="oF8WVjWUHLZyJpBt1P3e-6">
          <mxGeometry width="37" height="30" as="geometry">
            <mxRectangle width="37" height="30" as="alternateBounds" />
          </mxGeometry>
        </mxCell>
        <mxCell id="oF8WVjWUHLZyJpBt1P3e-8" value="IDЧувства int" style="shape=partialRectangle;connectable=0;fillColor=none;top=0;left=0;bottom=0;right=0;align=left;spacingLeft=6;fontStyle=5;overflow=hidden;whiteSpace=wrap;html=1;" vertex="1" parent="oF8WVjWUHLZyJpBt1P3e-6">
          <mxGeometry x="37" width="143" height="30" as="geometry">
            <mxRectangle width="143" height="30" as="alternateBounds" />
          </mxGeometry>
        </mxCell>
        <mxCell id="qjkPXYkK9kPyk9O8j_sl-26" value="" style="shape=tableRow;horizontal=0;startSize=0;swimlaneHead=0;swimlaneBody=0;fillColor=none;collapsible=0;dropTarget=0;points=[[0,0.5],[1,0.5]];portConstraint=eastwest;top=0;left=0;right=0;bottom=0;rounded=0;" parent="qjkPXYkK9kPyk9O8j_sl-4" vertex="1">
          <mxGeometry y="90" width="180" height="30" as="geometry" />
        </mxCell>
        <mxCell id="qjkPXYkK9kPyk9O8j_sl-27" value="FK" style="shape=partialRectangle;connectable=0;fillColor=none;top=0;left=0;bottom=0;right=0;fontStyle=0;overflow=hidden;rounded=0;" parent="qjkPXYkK9kPyk9O8j_sl-26" vertex="1">
          <mxGeometry width="37" height="30" as="geometry">
            <mxRectangle width="37" height="30" as="alternateBounds" />
          </mxGeometry>
        </mxCell>
        <mxCell id="qjkPXYkK9kPyk9O8j_sl-28" value="IDСобытия int" style="shape=partialRectangle;connectable=0;fillColor=none;top=0;left=0;bottom=0;right=0;align=left;spacingLeft=6;fontStyle=0;overflow=hidden;rounded=0;" parent="qjkPXYkK9kPyk9O8j_sl-26" vertex="1">
          <mxGeometry x="37" width="143" height="30" as="geometry">
            <mxRectangle width="143" height="30" as="alternateBounds" />
          </mxGeometry>
        </mxCell>
        <mxCell id="qjkPXYkK9kPyk9O8j_sl-54" value="" style="shape=tableRow;horizontal=0;startSize=0;swimlaneHead=0;swimlaneBody=0;fillColor=none;collapsible=0;dropTarget=0;points=[[0,0.5],[1,0.5]];portConstraint=eastwest;top=0;left=0;right=0;bottom=0;rounded=0;" parent="qjkPXYkK9kPyk9O8j_sl-4" vertex="1">
          <mxGeometry y="120" width="180" height="30" as="geometry" />
        </mxCell>
        <mxCell id="qjkPXYkK9kPyk9O8j_sl-55" value="FK" style="shape=partialRectangle;connectable=0;fillColor=none;top=0;left=0;bottom=0;right=0;fontStyle=0;overflow=hidden;rounded=0;" parent="qjkPXYkK9kPyk9O8j_sl-54" vertex="1">
          <mxGeometry width="37" height="30" as="geometry">
            <mxRectangle width="37" height="30" as="alternateBounds" />
          </mxGeometry>
        </mxCell>
        <mxCell id="qjkPXYkK9kPyk9O8j_sl-56" value="IDВызывающегоЧувства&#xa;int" style="shape=partialRectangle;connectable=0;fillColor=none;top=0;left=0;bottom=0;right=0;align=left;spacingLeft=6;fontStyle=0;overflow=hidden;rounded=0;" parent="qjkPXYkK9kPyk9O8j_sl-54" vertex="1">
          <mxGeometry x="37" width="143" height="30" as="geometry">
            <mxRectangle width="143" height="30" as="alternateBounds" />
          </mxGeometry>
        </mxCell>
        <mxCell id="qjkPXYkK9kPyk9O8j_sl-44" value="" style="edgeStyle=entityRelationEdgeStyle;fontSize=12;html=1;endArrow=ERzeroToMany;startArrow=ERzeroToOne;rounded=0;exitX=-0.004;exitY=0.233;exitDx=0;exitDy=0;exitPerimeter=0;entryX=1;entryY=0.5;entryDx=0;entryDy=0;" parent="1" source="6CpcxT5ZGMCKmVeEH0Hq-5" target="qjkPXYkK9kPyk9O8j_sl-26" edge="1">
          <mxGeometry width="100" height="100" relative="1" as="geometry">
            <mxPoint x="480" y="180" as="sourcePoint" />
            <mxPoint x="580" y="80" as="targetPoint" />
          </mxGeometry>
        </mxCell>
        <mxCell id="qjkPXYkK9kPyk9O8j_sl-58" value="" style="edgeStyle=entityRelationEdgeStyle;fontSize=12;html=1;endArrow=ERzeroToMany;startArrow=ERzeroToOne;rounded=0;entryX=1;entryY=0.5;entryDx=0;entryDy=0;exitX=-0.01;exitY=0.822;exitDx=0;exitDy=0;exitPerimeter=0;" parent="1" source="9riuW5s3sE9LM6lIKMUX-33" target="qjkPXYkK9kPyk9O8j_sl-54" edge="1">
          <mxGeometry width="100" height="100" relative="1" as="geometry">
            <mxPoint x="440" y="150" as="sourcePoint" />
            <mxPoint x="540" y="50" as="targetPoint" />
          </mxGeometry>
        </mxCell>
        <mxCell id="twK7g0DcGGdwUsfwsD0f-20" value="" style="edgeStyle=entityRelationEdgeStyle;fontSize=12;html=1;endArrow=ERzeroToMany;startArrow=ERmandOne;rounded=0;startSize=8;endSize=8;exitX=0;exitY=0.5;exitDx=0;exitDy=0;entryX=1;entryY=0.5;entryDx=0;entryDy=0;" parent="1" source="9riuW5s3sE9LM6lIKMUX-40" target="twK7g0DcGGdwUsfwsD0f-16" edge="1">
          <mxGeometry width="100" height="100" relative="1" as="geometry">
            <mxPoint x="490" y="350" as="sourcePoint" />
            <mxPoint x="590" y="250" as="targetPoint" />
          </mxGeometry>
        </mxCell>
      </root>
    </mxGraphModel>
  </diagram>
</mxfile>
